<svg xmlns="http://www.w3.org/2000/svg" width="217" height="42" viewBox="0 0 217 42" tabindex="-1" focusable="false" style="box-shadow: 0px 0px 0px; outline: none;">
					<g fill="none" fill-rule="evenodd">
						<g>
							<circle cx="21" cy="21" r="20.5" stroke="#FFF"></circle>
							<path fill="#FFF" d="M34.529 18.984c-.159.134-.328.265-.52.408-1.166.899-3.006 1.617-5.56 2.297-5.298 1.427-9.144 1.637-13.52 2.706-.847.205-1.742.494-2.566.83.824.412 1.702.796 2.605 1.138 1.77-.507 2.632-.74 5.203-1.175.98-.169 4-.695 6.183-1.157 3.939-.841 9.711-2.662 8.175-5.047M31.99 14.03a20.453 20.453 0 0 0-3-1.047c-.498.398-1.077.748-1.904 1.07 1.389.248 2.432.63 3.599.966.21.106 1.157-.781 1.305-.989m-19.306 5.265c5.148-1.508 10.553-1.974 16.024-3.426-2.137-.577-3.307-.822-5.568-.559-3.285.388-6.89 1.1-9.982 2.016-1.21.366-7.59 2.168-5.75 4.696 0 .034 1.093-1.5 5.276-2.727m-3.548 8.689c-.012.468.272.887.902 1.402.078-.255.192-.442.377-.685-.437-.22-.866-.464-1.28-.717m2.415-.239a9.67 9.67 0 0 1 1.386-.67 71.404 71.404 0 0 1-2.246-.985 5.544 5.544 0 0 0-.896.675c.582.338 1.162.669 1.756.98m19.79-10.938c-1.038.48-2.53.978-4.662 1.515-1.745.439-6.011 1.047-10.59 2.046-1.456.312-5.377 1.242-7.308 2.882.538.432.87.54 1.47.873.803-.512 1.88-.996 3.496-1.425 2.813-.75 4.906-1.078 7.435-1.476 2.515-.392 7.23-1.379 9.844-2.316.85-.308 1.644-.702 2.234-1.16-.182-.203-1.863-1.013-1.92-.94m1.522-.932c.512.252.973.439 1.42.754.322-.614.124-1.014-.55-1.58a5.628 5.628 0 0 1-.87.826M8.887 25.169c-.455-.254-.77-.433-1.154-.7-.209.448.18.944.595 1.184.176-.176.38-.32.559-.484m21.91-14.21c-.089.352-.465.755-.725 1.03.777.202 1.555.487 2.304.773-.089-.687-.891-1.352-1.58-1.803M6.574 15.345c5.395-3.535 11.36-5.598 21.471-3.853.558-.323.864-.626 1.007-1.29-2.525-.908-5.26-1.228-8.802-1.172-3.183.09-8.908 1.271-11.966 3.08l.932-1.164c2.139-1.248 7.711-2.918 11.887-3.003 2.948-.055 4.477.111 7.976 1.054-.304-.6-1.034-.9-2.09-1.376-3.39-1.52-9.723-1.663-14.911.621.658-.427 1.3-.83 2.14-1.216 1.709-.778 4.506-1.538 8.01-1.477 2.796.044 6.113 1.02 8.15 3.036.338.399.532.823.618 1.162 1.613.813 2.543 1.576 3.071 2.481.213.454.308.967.208 1.53.67.404.988.734 1.318 1.183.242.365.417.783.46 1.166.07.505.125 1.07-.403 1.735.554.268.986 1.03 1.053 1.368.253 1.214-.525 2.397-1.557 3.314-1.184 1.041-3.796 2.272-5.924 2.816-4.227 1.063-7.958 1.516-10.93 2.062 1.324.315 3.139.746 6.098.746 6.302 0 11.879-2.982 11.879-2.982s-.128.392-.25.734c-4.001 2.421-10.381 3.445-13.096 3.321-2.767-.129-5.089-.539-7.363-1.237-.7.184-1.387.402-2.047.698 3.464 1.574 6.077 1.93 9.04 2.142 3.017.223 8.014-.504 12.237-2.03-.192.19-.292.496-.49.675-2.157 1.13-6.728 2.273-9.021 2.367-2.281.093-5.073.01-7.489-.45-2.093-.403-3.788-1.066-5.566-1.843a1.327 1.327 0 0 0-.546.887c6.944 3.63 13.456 3.709 20.855 1.412l-.679.652c-8.149 3.3-14.521 2.019-19.45-.359-.16-.07-.357-.15-.5-.242.452.795 4.222 3.544 8.43 3.89 2.903.239 6.447-.26 8.548-1.098l-1.227.642c-1.022.498-3.715 1.631-7.493 1.383-5.024-.339-7.853-2.558-9.12-3.723-.588-.544-.867-1.176-1.044-1.948-1.136-.597-1.852-1.211-2.441-2.136-.352-.542-.28-1.147-.19-1.659.025-.16.07-.31.13-.455-.547-.396-1.097-.82-1.334-1.245-.496-.896-.19-1.665.153-2.263-.302-.334-.574-.68-.7-1.021-.132-.417-.155-.804-.119-1.241.094-.754.497-1.443 1.014-2.04 1.1-1.264 2.824-2.25 5.786-3.23 2.89-.957 4.058-1.099 6.24-1.607 2.548-.593 5.597-.78 8.152-1.673-7.113-1.25-14.5-.115-20.523 4.03l.408-1.154"></path>
						</g>
						<g fill="#FFF" fill-rule="nonzero">
							<path d="M70.36 31.13h4.576l.572-3.433h3.147l.476 3.432h4.577L79.894 11.68h-5.72L70.36 31.13zm6.674-13.634l.858 6.006h-1.716l.858-6.006zM169.227 20.928l.286-.286.381-.286.381-.477.382-.572.381-.763.286-.953.095-1.049-.095-.858-.286-.858-.381-.858-.572-.762-.763-.668-.953-.477-.477-.19-.572-.096-.667-.095h-6.865v19.45h6.388l1.144-.096 1.144-.286.953-.381.477-.286.477-.287.381-.38.286-.382.286-.477.286-.477.19-.572.192-.667.095-.667v-.668l-.095-.953-.191-.858-.286-.763-.382-.572-.476-.477-.477-.381-.953-.572zm-2.288-3.337l-.096.477-.19.381-.191.286-.286.19-.382.192-.286.095h-1.239V15.97h1.049l.286.096.381.095.382.19.286.287.19.381.096.572zm-1.43 9.057h-1.24v-3.337h1.62l.382.096.382.095.286.19.19.287.096.286.095.286.095.381-.095.668-.19.19-.191.286-.191.19-.381.192-.382.095-.477.095zM98.771 31.13h4.481v-6.484h2.384l.667-.095.667-.286.572-.286.572-.286.477-.382.477-.476.286-.477.572-1.049.381-1.048.286-1.144v-2.003l-.286-1.048-.381-1.05-.572-1.048-.382-.476-.476-.477-.477-.382-.477-.286-.667-.286-.572-.19-.763-.19h-6.769v19.448zm4.481-15.16h1.43l.382.096.286.19.19.191.19.286.192.381.095.477v.572l-.095.668-.096.572-.19.38-.191.287-.286.19-.286.096-.477.095h-1.144v-4.48zM133.093 31.32l.954-.095.858-.096.858-.286.667-.381.667-.477.572-.477.573-.667.476-.667.382-.668.286-.858.286-.762.19-.858.286-1.812.096-1.907-.096-1.811-.286-1.812-.19-.858-.286-.858-.286-.762-.382-.668-.476-.667-.573-.667-.572-.477-.667-.477-.667-.381-.858-.286-.858-.096-.954-.095-.953.095-.858.096-.858.286-.668.381-.667.477-.572.477-.572.667-.381.667-.382.668-.381.762-.286.858-.19.858-.287 1.812-.095 1.811.095 1.907.286 1.812.19.858.287.762.381.858.382.668.38.667.573.667.572.477.667.477.668.381.858.286.858.096.953.095zm0-4.672l-.572-.095-.477-.286-.38-.381-.382-.572-.286-.763-.19-.954-.096-1.048v-2.384l.095-1.048.19-.954.287-.763.381-.572.381-.381.477-.286.572-.095.572.095.477.286.381.381.382.572.286.763.19.954.096 1.048v2.384l-.096 1.048-.19.954-.286.763-.382.572-.381.38-.477.287-.572.095zM188.294 11.68h3.719l4.29 8.58.095.668V11.68h4.386v19.45h-3.814l-4.1-8.772-.19-.763v9.534h-4.386V11.68zM203.453 11.68h4.386v6.96h.953l2.575-6.96h4.766l-3.432 9.248 3.91 10.201h-5.15l-2.573-7.818h-1.049v7.818h-4.386V11.68zM142.436 11.68h3.814l3.432 4.576 3.337-4.576h3.909v19.45h-4.576V19.211l-2.67 3.432-2.67-3.432v11.917h-4.576V11.68zM173.136 31.13h4.576l.572-3.338h3.146l.572 3.337h4.576L182.67 11.68h-5.625l-3.908 19.45zm6.673-13.539l.858 5.911h-1.716l.858-5.91zM69.597 19.975H63.02v3.622h2.479l-.095.668-.191.667-.19.572-.191.382-.287.38-.38.287-.382.095-.382.096-.572-.096-.572-.286-.476-.381-.382-.667-.286-.668-.286-.953-.095-1.049-.095-1.24v-.571l.095-1.144.19-.954.287-.763.286-.762.476-.572.572-.382.572-.19.763-.096h.954l.953.191.763.286.858.477 1.334-4.005-.38-.286-.573-.286-1.144-.476-1.144-.286-1.144-.096H63.4l-.858.191-.858.19-.762.287-.763.381-.667.381-.573.573-.572.572-.572.572-.476.762-.382.763-.286.763-.286.953-.19.858-.096 1.049-.095 1.049v.572l.095 1.906.286 1.812.191.858.286.763.381.858.382.667.476.667.477.668.668.477.667.476.667.382.858.286.858.095.954.095.953-.095.858-.095.763-.286.667-.382.668-.476.476-.477.477-.668.381-.667.286-.667.286-.858.382-1.621.19-1.812v-3.336zM85.233 11.68v4.481h5.148l-5.339 14.968h11.536v-4.48H91.43l4.862-14.969H85.233zM125.466 31.13l-3.909-8.01.572-.476.477-.572.477-.667.381-.668.286-.762.286-.668.095-.667V16.924l-.286-1.049-.381-1.049-.572-.953-.381-.477-.477-.381-.477-.382-.476-.286-.668-.286-.572-.19-.763-.19h-6.769v19.448h4.481v-6.673h1.049l2.383 6.673h5.244zm-8.676-15.16h1.43l.382.096.286.19.19.191.191.286.19.381.096.477v1.24l-.19.572-.191.38-.19.287-.287.19-.286.096-.477.095h-1.144v-4.48z"></path>
						</g>
					</g>
				</svg>